<svg xmlns="http://www.w3.org/2000/svg" viewBox="0 0 675 224"><defs><style>.a{fill:#e00;}</style></defs><title>Logo-Red_Hat-Data_Grid-A-Standard-RGB</title><path d="M228.65,146.74h25.69c22.26,0,38.38,15.8,38.38,36.5,0,20.49-16,36.3-38.38,36.3H228.65Zm10.92,9.77v53.25h15c15.29,0,26.94-11.54,26.94-26.52s-11.65-26.73-26.94-26.73Z"/><path d="M299.37,204.35c0-10.6,9.05-16.12,21.43-16.12a36.41,36.41,0,0,1,14.45,2.92v-5.62c0-7.49-4.47-11.23-12.89-11.23-5.1,0-10.3,1.56-16.44,4.47l-3.84-7.8c7.48-3.54,14.35-5.41,21.73-5.41,13.63,0,21.64,6.66,21.64,18.93v35h-10.2V215c-4.57,3.75-10,5.51-16.43,5.51C307.28,220.47,299.37,213.82,299.37,204.35Zm21.84,8.43a20.38,20.38,0,0,0,14-5v-9.26a27.73,27.73,0,0,0-13.62-3.12c-7.28,0-12.27,3.22-12.27,8.74C309.36,209.35,314.25,212.78,321.21,212.78Z"/><path d="M362.29,175.34H351.06V166.6h11.23V153.08l10.3-2.5v16h15.6v8.74h-15.6V204c0,5.41,2.18,7.39,7.8,7.39a20.18,20.18,0,0,0,7.59-1.25v8.74a35.8,35.8,0,0,1-9.88,1.55c-10.29,0-15.81-4.88-15.81-14Z"/><path d="M393.18,204.35c0-10.6,9.05-16.12,21.43-16.12a36.49,36.49,0,0,1,14.45,2.92v-5.62c0-7.49-4.47-11.23-12.89-11.23-5.1,0-10.3,1.56-16.44,4.47l-3.85-7.8c7.49-3.54,14.36-5.41,21.74-5.41,13.63,0,21.63,6.66,21.63,18.93v35H429.06V215c-4.57,3.75-10,5.51-16.43,5.51C401.08,220.47,393.18,213.82,393.18,204.35ZM415,212.78a20.38,20.38,0,0,0,14-5v-9.26a27.75,27.75,0,0,0-13.62-3.12c-7.28,0-12.28,3.22-12.28,8.74C403.16,209.35,408.05,212.78,415,212.78Z"/><path d="M509.14,220.68c-21.32,0-38-16.64-38-37.54s16.54-37.55,37.86-37.55c11.44,0,22.25,4.58,29.33,12.59l-7.49,7.28A28.86,28.86,0,0,0,509,155.68c-15.29,0-26.73,12-26.73,27.46S494,210.7,509.24,210.7c13,0,22.88-8.84,24.34-20.8H509.35v-9.57H545v3.74C545,204.87,529.63,220.68,509.14,220.68Z"/><path d="M555.11,166.6h10.4v6.55A17,17,0,0,1,580,165.46a15.09,15.09,0,0,1,5.41.83v9.36a18.61,18.61,0,0,0-6.24-1.15c-5.51,0-10.71,2.71-13.62,9.57v35.47h-10.4Z"/><path d="M592.55,151.62a6.47,6.47,0,0,1,6.44-6.44,6.45,6.45,0,0,1,0,12.89A6.48,6.48,0,0,1,592.55,151.62Zm11.64,67.92h-10.4V166.6h10.4Z"/><path d="M656.92,214.55a25,25,0,0,1-16.22,5.82C625.62,220.37,614,208.2,614,193s11.65-27.25,26.94-27.25a26.5,26.5,0,0,1,15.91,5.2V146.74l10.4-2.29v75.09h-10.3Zm-14.77-3.23A19,19,0,0,0,656.82,205V181a19.8,19.8,0,0,0-14.67-6.24c-10.29,0-18,7.91-18,18.2C624.16,203.42,632.07,211.32,642.15,211.32Z"/><path class="a" d="M129,85c12.51,0,30.61-2.58,30.61-17.46a14,14,0,0,0-.31-3.42l-7.45-32.36c-1.72-7.12-3.23-10.35-15.73-16.6C126.39,10.19,105.26,2,99,2c-5.82,0-7.55,7.54-14.45,7.54-6.68,0-11.64-5.6-17.89-5.6-6,0-9.91,4.09-12.93,12.5,0,0-8.41,23.72-9.49,27.16A6.43,6.43,0,0,0,44,45.54C44,54.76,80.33,85,129,85m32.55-11.42c1.73,8.19,1.73,9.05,1.73,10.13,0,14-15.74,21.77-36.43,21.77C80,105.47,39.08,78.1,39.08,60a18.45,18.45,0,0,1,1.51-7.33C23.77,53.52,2,56.54,2,75.72,2,107.2,76.59,146,135.65,146c45.28,0,56.7-20.48,56.7-36.65,0-12.72-11-27.16-30.83-35.78"/><path d="M161.52,73.57c1.73,8.19,1.73,9.05,1.73,10.13,0,14-15.74,21.77-36.43,21.77C80,105.47,39.08,78.1,39.08,60a18.45,18.45,0,0,1,1.51-7.33l3.66-9.06A6.43,6.43,0,0,0,44,45.54C44,54.76,80.33,85,129,85c12.51,0,30.61-2.58,30.61-17.46a14,14,0,0,0-.31-3.42Z"/><path d="M581.24,94.3c0,11.89,7.15,17.67,20.19,17.67a52.11,52.11,0,0,0,11.89-1.68V96.51a24.84,24.84,0,0,1-7.68,1.16c-5.37,0-7.36-1.68-7.36-6.73V69.8h15.56V55.6H598.28v-18l-17,3.68V55.6H570V69.8h11.25Zm-53,.32c0-3.68,3.69-5.47,9.26-5.47a43.12,43.12,0,0,1,10.1,1.26v7.15A21.51,21.51,0,0,1,537,100.19c-5.46,0-8.73-2.1-8.73-5.57m5.2,17.56c6,0,10.84-1.26,15.36-4.31v3.37h16.82V75.58c0-13.56-9.14-21-24.39-21-8.52,0-16.94,2-26,6.1l6.1,12.52c6.52-2.74,12-4.42,16.83-4.42,7,0,10.62,2.73,10.62,8.31v2.73a49.53,49.53,0,0,0-12.62-1.58c-14.31,0-22.93,6-22.93,16.73,0,9.78,7.78,17.24,20.19,17.24m-92.44-.94h18.09V82.42h30.29v28.82h18.09V37.62H489.43V65.91H459.14V37.62H441.05ZM372.12,83.37c0-8,6.31-14.1,14.62-14.1a17.22,17.22,0,0,1,11.78,4.32V93a16.36,16.36,0,0,1-11.78,4.42c-8.2,0-14.62-6.1-14.62-14.09m26.61,27.87h16.83V33.94l-17,3.68V58.55a28.3,28.3,0,0,0-14.2-3.68c-16.19,0-28.92,12.51-28.92,28.5A28.25,28.25,0,0,0,383.8,112a25.12,25.12,0,0,0,14.93-4.83Zm-77.19-42.7c5.36,0,9.88,3.47,11.67,8.83H310c1.68-5.57,5.89-8.83,11.57-8.83M292.83,83.47c0,16.2,13.25,28.82,30.28,28.82,9.36,0,16.2-2.53,23.25-8.42l-11.26-10c-2.63,2.74-6.52,4.21-11.14,4.21a14.39,14.39,0,0,1-13.68-8.83h39.65V85.05c0-17.67-11.88-30.39-28.08-30.39a28.57,28.57,0,0,0-29,28.81M263.49,53.08c6,0,9.36,3.78,9.36,8.31s-3.37,8.31-9.36,8.31H245.61V53.08Zm-36,58.16h18.09V84.42h13.77l13.89,26.82h20.19l-16.2-29.45a22.27,22.27,0,0,0,13.88-20.72c0-13.25-10.41-23.45-26-23.45H227.52Z"/></svg>